<svg width="132" height="23" viewBox="0 0 132 23" fill="none" xmlns="http://www.w3.org/2000/svg">
<g clip-path="url(#clip0_233_2360)">
<path d="M15.9 1.6H0.4C0.2 1.6 0 1.8 0 2V4.8C0 5 0.2 5.2 0.4 5.2H6.2V22.3H10V5.2H15.9C16.1 5.2 16.3 5 16.3 4.8V2C16.2 1.8 16.1 1.6 15.9 1.6Z" fill="#2A2F38"/>
<path d="M27.4 6.5C25.5 6.5 24.1 7.1 23.1 8.4L22.9 8.7V2C22.9 1.8 22.7 1.6 22.5 1.6H19.5C19.3 1.6 19.1 1.8 19.1 2V22.3H22.8V13.6C22.8 12.5 23.1 11.6 23.7 11C24.3 10.4 25.1 10 26.1 10C27.1 10 27.9 10.3 28.5 11C29.1 11.6 29.4 12.5 29.4 13.6V22.3H33.1V13C33.1 11 32.6 9.4 31.5 8.3C30.6 7.1 29.2 6.5 27.4 6.5Z" fill="#2A2F38"/>
<path d="M39.2 0.0999985C38.6 0.0999985 38.1 0.299998 37.7 0.699998C37.3 1.1 37.1 1.6 37.1 2.2C37.1 2.8 37.3 3.3 37.7 3.8C38.1 4.2 38.6 4.4 39.2 4.4C39.8 4.4 40.3 4.2 40.8 3.8C41.2 3.4 41.4 2.8 41.4 2.2C41.4 1.6 41.2 1.1 40.8 0.699998C40.3 0.299998 39.8 0.0999985 39.2 0.0999985Z" fill="#2A2F38"/>
<path d="M40.7 6.9H37.7C37.5 6.9 37.3 7.1 37.3 7.3V22.3H41V7.3C41.1 7 40.9 6.9 40.7 6.9Z" fill="#2A2F38"/>
<path d="M53.6 6.5C51.7 6.5 50.3 7.1 49.3 8.4L49.1 8.7V7.2C49.1 7 48.9 6.8 48.7 6.8H45.7C45.5 6.8 45.3 7 45.3 7.2V22.2H49V13.5C49 12.4 49.3 11.5 49.9 10.9C50.5 10.3 51.3 9.9 52.3 9.9C53.3 9.9 54.1 10.2 54.7 10.9C55.3 11.5 55.6 12.4 55.6 13.5V22.2H59.3V12.9C59.3 10.9 58.8 9.3 57.7 8.2C56.7 7.1 55.3 6.5 53.6 6.5Z" fill="#2A2F38"/>
<path d="M72.2 14L77 7.5C77.2 7.3 77 6.9 76.7 6.9H73.3C73.1 6.9 72.8 7 72.7 7.2L68.9 12.5H66.8V0.4C66.8 0.2 66.6 0 66.4 0H63.4C63.2 0 63 0.2 63 0.4V22.2H66.7V15.8H68.8L73.1 22.2H77.8L72.2 14Z" fill="#2A2F38"/>
<path d="M118 6.9H115C114.8 6.9 114.6 7.1 114.6 7.3V15.2C114.6 16.4 114.3 17.3 113.7 18C113.1 18.7 112.2 19.1 111.2 19.1C110.2 19.1 109.3 18.7 108.7 18C108.1 17.3 107.8 16.3 107.8 15.2V7.3C107.8 7.1 107.6 6.9 107.4 6.9H104.5C104.3 6.9 104.1 7.1 104.1 7.3V15.5C104.1 17.7 104.7 19.4 106.1 20.7C107.4 22 109.1 22.7 111.3 22.7C113.5 22.7 115.2 22 116.5 20.7C117.8 19.4 118.5 17.7 118.5 15.5V7.3C118.3 7 118.2 6.9 118 6.9Z" fill="#2A2F38"/>
<path d="M90.3 1.2C84.4 1.2 79.6 6 79.6 11.9C79.6 17.8 84.4 22.6 90.3 22.6C96.2 22.6 101 17.8 101 11.9C101 6 96.2 1.2 90.3 1.2ZM90.3 18.6C86.6 18.6 83.6 15.6 83.6 11.9C83.6 8.2 86.6 5.2 90.3 5.2C94 5.2 97 8.2 97 11.9C97 15.6 94 18.6 90.3 18.6Z" fill="#2A2F38"/>
<path d="M131.4 10.1C131.6 10.1 131.8 9.9 131.8 9.7V7.2C131.8 7 131.6 6.8 131.4 6.8H127.5V3C127.5 2.8 127.3 2.6 127.1 2.6H124.1C123.9 2.6 123.7 2.8 123.7 3V6.8H121.3C121.1 6.8 120.9 7 120.9 7.2V9.7C120.9 9.9 121.1 10.1 121.3 10.1H123.7V17.1C123.7 18.9 124.2 20.3 125.2 21.2C126.2 22.1 127.7 22.6 129.5 22.6C130.2 22.6 130.9 22.5 131.7 22.4V19.2C131 19.3 130.4 19.3 130.4 19.3C129.4 19.3 128.7 19.1 128.2 18.7C127.7 18.3 127.5 17.7 127.5 16.8V10.2H131.4V10.1Z" fill="#2A2F38"/>
</g>
<defs>
<clipPath id="clip0_233_2360">
<rect width="131.8" height="22.7" fill="white"/>
</clipPath>
</defs>
</svg>
