<svg width="389" height="51" viewBox="0 0 389 51" fill="none" xmlns="http://www.w3.org/2000/svg">
<path d="M35.2855 3.59055H0.886571C0.443286 3.59055 0 4.03384 0 4.49929V10.7939C0 11.2372 0.443286 11.7027 0.886571 11.7027H13.764V50.1134H22.2086V11.6805H35.3077C35.751 11.6805 36.1943 11.2372 36.1943 10.7718V4.47713C35.9726 4.03384 35.751 3.56839 35.3077 3.56839L35.2855 3.59055Z" fill="#27272A"/>
<path d="M334.725 11.4368V3.34683H317.836C317.393 3.34683 316.949 3.79012 316.949 4.25557V10.5502C316.949 10.9935 317.393 11.459 317.836 11.459H326.28V49.8697H334.725V11.4368Z" fill="#B45309"/>
<path d="M60.8188 14.6063C56.6076 14.6063 53.4825 15.9583 51.266 18.884L50.8228 19.5489V4.49934C50.8228 4.05606 50.3795 3.59061 49.9362 3.59061H43.2869C42.8436 3.59061 42.4003 4.03389 42.4003 4.49934V50.0913H50.6233V30.5645C50.6233 28.1043 51.2882 26.0652 52.6181 24.7353C53.9479 23.3833 55.7211 22.4967 57.9375 22.4967C60.1539 22.4967 61.9271 23.1617 63.2569 24.7353C64.5868 26.0874 65.2517 28.1043 65.2517 30.5645V50.0913H73.4747V29.2125C73.4747 24.7132 72.3664 21.1226 69.9284 18.6623C67.9336 15.9583 64.8306 14.6284 60.8188 14.6284V14.6063Z" fill="#27272A"/>
<path d="M87.0169 0.221619C85.6871 0.221619 84.5789 0.664904 83.6923 1.57364C82.8057 2.48238 82.3624 3.59059 82.3624 4.94261C82.3624 6.29463 82.8057 7.40285 83.6923 8.53323C84.5789 9.44196 85.6871 9.88525 87.0169 9.88525C88.3468 9.88525 89.455 9.44196 90.5632 8.53323C91.4498 7.62449 91.8931 6.29463 91.8931 4.94261C91.8931 3.59059 91.4498 2.48238 90.5632 1.57364C89.455 0.664904 88.3468 0.221619 87.0169 0.221619Z" fill="#27272A"/>
<path d="M306.089 41.2256C304.759 41.2256 303.651 41.6688 302.764 42.5776C301.877 43.4863 301.434 44.5945 301.434 45.9465C301.434 47.2986 301.877 48.4068 302.764 49.5372C303.651 50.4459 304.759 50.8892 306.089 50.8892C307.419 50.8892 308.527 50.4459 309.635 49.5372C310.522 48.6284 310.965 47.2986 310.965 45.9465C310.965 44.5945 310.522 43.4863 309.635 42.5776C308.527 41.6688 307.419 41.2256 306.089 41.2256Z" fill="#B45309"/>
<path d="M90.3416 15.4928H83.6923C83.249 15.4928 82.8057 15.9361 82.8057 16.4016V50.0913H91.0287V16.4016C91.2503 15.7366 90.807 15.4928 90.3637 15.4928H90.3416Z" fill="#27272A"/>
<path d="M118.978 14.6063C114.767 14.6063 111.642 15.9583 109.425 18.884L108.982 19.5489V16.1799C108.982 15.7366 108.539 15.2712 108.095 15.2712H101.446C101.003 15.2712 100.559 15.7145 100.559 16.1799V49.8696H108.782V30.3207C108.782 27.8605 109.447 25.8214 110.777 24.4915C112.107 23.1395 113.88 22.2529 116.097 22.2529C118.313 22.2529 120.086 22.9179 121.416 24.4915C122.746 25.8436 123.411 27.8605 123.411 30.3207V49.8696H131.634V28.9909C131.634 24.4915 130.525 20.9009 128.087 18.4407C125.871 15.9804 122.768 14.6284 118.978 14.6284V14.6063Z" fill="#27272A"/>
<path d="M160.048 31.4511L170.709 16.8449C171.153 16.4016 170.709 15.4928 170.044 15.4928H162.486C162.043 15.4928 161.378 15.7145 161.156 16.1578L152.712 28.06H148.057V0.908736C148.057 0.46545 147.614 0 147.171 0H140.522C140.078 0 139.635 0.443286 139.635 0.908736V49.8696H147.858V35.5072H152.512L162.065 49.8696H172.505L160.07 31.4511H160.048Z" fill="#27272A"/>
<path d="M261.938 15.4928H255.288C254.845 15.4928 254.402 15.9361 254.402 16.4016V34.133C254.402 36.837 253.737 38.854 252.407 40.4276C251.077 42.0013 249.082 42.8879 246.866 42.8879C244.649 42.8879 242.655 41.9791 241.325 40.4276C239.995 38.854 239.33 36.6154 239.33 34.133V16.4016C239.33 15.9583 238.887 15.4928 238.443 15.4928H232.016C231.573 15.4928 231.129 15.9361 231.129 16.4016V34.8201C231.129 39.7627 232.459 43.575 235.562 46.5007C238.443 49.4263 242.211 51 247.11 51C252.008 51 255.776 49.4263 258.657 46.5007C261.539 43.575 263.09 39.7627 263.09 34.8201V16.4016C262.647 15.7366 262.425 15.4928 261.982 15.4928H261.938Z" fill="#27272A"/>
<path d="M200.454 2.70404C187.355 2.70404 176.694 13.4759 176.694 26.7301C176.694 39.9844 187.355 50.7562 200.454 50.7562C213.553 50.7562 224.214 39.9844 224.214 26.7301C224.214 13.4759 213.553 2.70404 200.454 2.70404ZM200.454 41.7797C192.231 41.7797 185.581 35.0417 185.581 26.7301C185.581 18.4185 192.231 11.6806 200.454 11.6806C208.677 11.6806 215.326 18.4185 215.326 26.7301C215.326 35.0417 208.677 41.7797 200.454 41.7797Z" fill="#27272A"/>
<path d="M365.09 2.70404C351.991 2.70404 341.33 13.4759 341.33 26.7301C341.33 39.9844 351.991 50.7562 365.09 50.7562C378.189 50.7562 388.85 39.9844 388.85 26.7301C388.85 13.4759 378.189 2.70404 365.09 2.70404ZM365.09 41.7797C356.867 41.7797 350.218 35.0417 350.218 26.7301C350.218 18.4185 356.867 11.6806 365.09 11.6806C373.313 11.6806 379.962 18.4185 379.962 26.7301C379.962 35.0417 373.313 41.7797 365.09 41.7797Z" fill="#B45309"/>
<path d="M291.682 22.674C292.125 22.674 292.568 22.2307 292.568 21.7653V16.1577C292.568 15.7144 292.125 15.249 291.682 15.249H283.016V6.71574C283.016 6.27246 282.572 5.80701 282.129 5.80701H275.48C275.037 5.80701 274.593 6.25029 274.593 6.71574V15.249H269.274C268.83 15.249 268.387 15.6923 268.387 16.1577V21.7653C268.387 22.2086 268.83 22.674 269.274 22.674H274.593V38.3885C274.593 42.4224 275.701 45.5697 277.918 47.5867C280.134 49.6036 283.459 50.734 287.471 50.734C289.022 50.734 290.574 50.5124 292.347 50.2907V43.1095C290.795 43.3311 289.465 43.3311 289.465 43.3311C287.249 43.3311 285.698 42.8878 284.589 41.9791C283.481 41.0704 283.038 39.7405 283.038 37.7014V22.8735H291.704V22.6519L291.682 22.674Z" fill="#27272A"/>
</svg>
